<svg width="912" height="892" viewBox="0 0 912 892" fill="none" xmlns="http://www.w3.org/2000/svg">
<path d="M796.9 209.769C786.586 202.589 772.424 205.153 765.244 215.468C739.799 252.053 710.85 294.822 689.223 339.557C664.862 389.934 653.008 435.951 653.008 480.258C653.008 480.343 653.008 480.457 653.008 480.543C653.008 480.628 653.008 480.742 653.008 480.828V572.349C652.353 574.457 652.011 576.708 652.011 579.045C652.011 620.674 618.132 654.524 576.532 654.524C563.966 654.524 553.794 664.696 553.794 677.262C553.794 689.828 563.966 700 576.532 700C640.87 700 693.611 649.509 697.287 586.083C698.085 583.775 698.512 581.324 698.512 578.732V480.771C698.512 480.771 698.512 480.571 698.512 480.486C698.512 480.4 698.512 480.286 698.512 480.201C698.512 397.94 747.778 320.267 802.628 241.34C809.808 231.025 807.244 216.864 796.929 209.684L796.9 209.769Z" fill="#FCE6FF"/>
<path d="M575.99 503.024C588.556 503.024 598.728 492.852 598.728 480.287C598.728 345.427 679.479 220.939 747.236 140.217C755.3 130.586 754.046 116.254 744.444 108.19C734.813 100.126 720.481 101.38 712.417 110.982C664.149 168.482 626.167 226.951 599.526 284.764C568.838 351.382 553.252 417.174 553.252 480.287C553.252 492.852 563.425 503.024 575.99 503.024Z" fill="#FCE6FF"/>
<path d="M695.35 6.66748C686.46 -2.22249 672.07 -2.22249 663.18 6.66748C597.588 72.2595 546.186 146.571 510.341 227.606C473.955 309.867 455.52 394.891 455.52 480.286C455.52 492.852 465.692 503.024 478.258 503.024C490.823 503.024 500.995 492.852 500.995 480.286C500.995 323.23 571.83 162.327 695.321 38.8366C704.211 29.9467 704.211 15.5575 695.321 6.66748H695.35Z" fill="#FCE6FF"/>
<path d="M402.778 480.828C402.778 480.828 402.778 480.657 402.778 480.543C402.778 480.458 402.778 480.372 402.778 480.258C402.778 313.172 447.257 169.251 534.931 52.4566C542.482 42.4269 540.43 28.1516 530.401 20.6294C520.371 13.0786 506.096 15.1016 498.573 25.1598C450.163 89.6406 413.606 162.954 389.985 243.107C368.301 316.677 357.303 396.459 357.303 480.287C357.303 480.372 357.303 480.458 357.303 480.572C357.303 480.657 357.303 480.742 357.303 480.856V552.831C326.701 543.143 304.476 514.479 304.476 480.714C304.476 468.148 294.303 457.976 281.738 457.976C269.172 457.976 259 468.148 259 480.714C259 547.503 313.337 601.811 380.097 601.811C392.663 601.811 402.835 591.639 402.835 579.074C402.835 578.504 402.835 577.934 402.778 577.364V480.828Z" fill="#FCE6FF"/>
<mask id="path-5-outside-1_1405_4" maskUnits="userSpaceOnUse" x="-1" y="638" width="499" height="106" fill="black">
<rect fill="white" x="-1" y="638" width="499" height="106"/>
<path d="M29.9 717.3C25.1 717.3 20.5667 716.467 16.3 714.8C12.0333 713.133 8.5 710.8 5.7 707.8C4.36667 706.667 4.4 705.5 5.8 704.3C7 703.233 8.13333 703.267 9.2 704.4C11.5333 706.867 14.5333 708.8 18.2 710.2C21.8667 711.6 25.7667 712.3 29.9 712.3C35.6333 712.3 40.1 711.133 43.3 708.8C46.5 706.467 48.1 703.233 48.1 699.1C48.1 694.767 46.4333 691.3 43.1 688.7C39.7667 686.1 34.5667 684.267 27.5 683.2C20.6333 682.067 15.5667 679.9 12.3 676.7C9.03333 673.5 7.4 669.033 7.4 663.3C7.4 657.367 9.3 652.767 13.1 649.5C16.9 646.167 22.1667 644.5 28.9 644.5C32.3667 644.5 35.9667 645.167 39.7 646.5C43.4333 647.833 46.9 649.667 50.1 652C51.3667 653.067 51.5 654.233 50.5 655.5C49.5 656.833 48.3667 657 47.1 656C44.3667 653.933 41.3667 652.333 38.1 651.2C34.9 650.067 31.8333 649.5 28.9 649.5C23.7 649.5 19.6333 650.733 16.7 653.2C13.8333 655.6 12.4 658.967 12.4 663.3C12.4 667.567 13.6667 670.933 16.2 673.4C18.8 675.8 22.8333 677.433 28.3 678.3C36.8333 679.567 43.1 681.9 47.1 685.3C51.1 688.633 53.1 693.233 53.1 699.1C53.1 704.767 51.0667 709.233 47 712.5C42.9333 715.7 37.2333 717.3 29.9 717.3ZM100.591 717.3C99.9247 717.3 99.3247 717.067 98.7914 716.6C98.3247 716.133 98.0914 715.567 98.0914 714.9V647.1C98.0914 646.367 98.3247 645.767 98.7914 645.3C99.3247 644.767 99.9247 644.5 100.591 644.5C101.325 644.5 101.925 644.767 102.391 645.3C102.858 645.767 103.091 646.367 103.091 647.1V714.9C103.091 715.567 102.858 716.133 102.391 716.6C101.925 717.067 101.325 717.3 100.591 717.3ZM174.017 717.3C169.017 717.3 164.651 716.267 160.917 714.2C157.251 712.133 154.384 709.233 152.317 705.5C150.251 701.767 149.217 697.433 149.217 692.5V669.3C149.217 664.3 150.284 659.967 152.417 656.3C154.551 652.567 157.517 649.667 161.317 647.6C165.184 645.533 169.684 644.5 174.817 644.5C178.351 644.5 181.651 645.067 184.717 646.2C187.851 647.267 190.551 648.767 192.817 650.7C195.151 652.633 196.851 654.9 197.917 657.5C198.251 658.167 198.251 658.833 197.917 659.5C197.584 660.1 197.084 660.5 196.417 660.7C194.951 661.367 193.884 660.933 193.217 659.4C191.951 656.467 189.617 654.1 186.217 652.3C182.884 650.433 179.084 649.5 174.817 649.5C170.684 649.5 167.051 650.333 163.917 652C160.851 653.6 158.451 655.9 156.717 658.9C155.051 661.833 154.217 665.3 154.217 669.3V692.5C154.217 696.433 155.017 699.9 156.617 702.9C158.284 705.9 160.584 708.233 163.517 709.9C166.517 711.5 170.017 712.3 174.017 712.3C177.151 712.3 180.317 711.933 183.517 711.2C186.717 710.467 189.384 709.467 191.517 708.2V689.8H175.917C174.184 689.8 173.317 688.967 173.317 687.3C173.317 685.633 174.184 684.8 175.917 684.8H194.117C195.717 684.8 196.517 685.633 196.517 687.3V709.6C196.517 710.533 196.151 711.267 195.417 711.8C192.884 713.467 189.651 714.8 185.717 715.8C181.784 716.8 177.884 717.3 174.017 717.3ZM243.75 717.3C243.083 717.3 242.483 717.067 241.95 716.6C241.483 716.133 241.25 715.567 241.25 714.9V647C241.25 645.733 241.85 644.933 243.05 644.6C244.25 644.267 245.217 644.633 245.95 645.7C252.15 655.567 257.45 664 261.85 671C266.317 678 269.983 683.8 272.85 688.4C275.783 693 278.083 696.633 279.75 699.3C281.417 701.9 282.583 703.733 283.25 704.8C283.917 705.867 284.25 706.4 284.25 706.4V647C284.25 646.333 284.517 645.767 285.05 645.3C285.583 644.767 286.183 644.5 286.85 644.5C287.517 644.5 288.083 644.767 288.55 645.3C289.017 645.767 289.25 646.333 289.25 647V714.9C289.25 716.1 288.683 716.867 287.55 717.2C286.35 717.533 285.383 717.2 284.65 716.2C278.45 706.333 273.15 697.9 268.75 690.9C264.35 683.9 260.683 678.1 257.75 673.5C254.817 668.9 252.517 665.3 250.85 662.7C249.183 660.033 247.983 658.167 247.25 657.1C246.583 656.033 246.25 655.5 246.25 655.5V714.9C246.25 715.567 246.017 716.133 245.55 716.6C245.083 717.067 244.483 717.3 243.75 717.3ZM345.036 717.4C344.369 717.4 343.803 717.167 343.336 716.7C342.936 716.3 342.736 715.767 342.736 715.1V680.2H331.236C330.569 680.2 330.003 679.967 329.536 679.5C329.069 678.967 328.836 678.367 328.836 677.7C328.836 677.033 329.069 676.5 329.536 676.1C330.003 675.633 330.569 675.4 331.236 675.4H345.036C345.769 675.4 346.369 675.633 346.836 676.1C347.303 676.5 347.536 677.033 347.536 677.7V715.1C347.536 715.767 347.303 716.3 346.836 716.7C346.369 717.167 345.769 717.4 345.036 717.4ZM343.836 657.3C342.903 657.3 342.136 657.033 341.536 656.5C340.936 655.967 340.636 655.367 340.636 654.7V648.5C340.636 647.833 340.936 647.233 341.536 646.7C342.136 646.1 342.903 645.8 343.836 645.8C344.769 645.8 345.503 646.1 346.036 646.7C346.636 647.233 346.936 647.833 346.936 648.5V654.7C346.936 655.367 346.636 655.967 346.036 656.5C345.503 657.033 344.769 657.3 343.836 657.3ZM399.059 717.4C398.392 717.4 397.825 717.167 397.359 716.7C396.892 716.3 396.659 715.767 396.659 715.1V680.2H389.459C388.792 680.2 388.225 679.967 387.759 679.5C387.292 678.967 387.059 678.4 387.059 677.8C387.059 677.133 387.292 676.567 387.759 676.1C388.225 675.633 388.792 675.4 389.459 675.4H396.659V660.7C396.659 650.9 401.625 646 411.559 646H417.459C418.125 646 418.659 646.233 419.059 646.7C419.525 647.167 419.759 647.733 419.759 648.4C419.759 649.067 419.525 649.633 419.059 650.1C418.659 650.567 418.125 650.8 417.459 650.8H411.559C408.025 650.8 405.425 651.6 403.759 653.2C402.159 654.733 401.359 657.233 401.359 660.7V675.4H417.559C418.225 675.4 418.792 675.633 419.259 676.1C419.725 676.567 419.959 677.133 419.959 677.8C419.959 678.4 419.725 678.967 419.259 679.5C418.792 679.967 418.225 680.2 417.559 680.2H401.359V715.1C401.359 715.767 401.125 716.3 400.659 716.7C400.259 717.167 399.725 717.4 399.059 717.4ZM465.473 738.2C464.806 737.933 464.339 737.5 464.073 736.9C463.806 736.3 463.806 735.7 464.073 735.1L471.473 716.3L455.773 677.2C455.506 676.6 455.506 676 455.773 675.4C456.039 674.8 456.473 674.367 457.073 674.1C457.673 673.9 458.273 673.933 458.873 674.2C459.473 674.4 459.906 674.833 460.173 675.5L474.073 709.9L487.673 675.5C487.939 674.833 488.339 674.4 488.873 674.2C489.473 673.933 490.106 673.9 490.773 674.1C491.373 674.367 491.806 674.8 492.073 675.4C492.339 676 492.339 676.6 492.073 677.2L468.473 736.9C468.206 737.5 467.773 737.9 467.173 738.1C466.639 738.367 466.073 738.4 465.473 738.2Z"/>
</mask>
<path d="M29.9 717.3C25.1 717.3 20.5667 716.467 16.3 714.8C12.0333 713.133 8.5 710.8 5.7 707.8C4.36667 706.667 4.4 705.5 5.8 704.3C7 703.233 8.13333 703.267 9.2 704.4C11.5333 706.867 14.5333 708.8 18.2 710.2C21.8667 711.6 25.7667 712.3 29.9 712.3C35.6333 712.3 40.1 711.133 43.3 708.8C46.5 706.467 48.1 703.233 48.1 699.1C48.1 694.767 46.4333 691.3 43.1 688.7C39.7667 686.1 34.5667 684.267 27.5 683.2C20.6333 682.067 15.5667 679.9 12.3 676.7C9.03333 673.5 7.4 669.033 7.4 663.3C7.4 657.367 9.3 652.767 13.1 649.5C16.9 646.167 22.1667 644.5 28.9 644.5C32.3667 644.5 35.9667 645.167 39.7 646.5C43.4333 647.833 46.9 649.667 50.1 652C51.3667 653.067 51.5 654.233 50.5 655.5C49.5 656.833 48.3667 657 47.1 656C44.3667 653.933 41.3667 652.333 38.1 651.2C34.9 650.067 31.8333 649.5 28.9 649.5C23.7 649.5 19.6333 650.733 16.7 653.2C13.8333 655.6 12.4 658.967 12.4 663.3C12.4 667.567 13.6667 670.933 16.2 673.4C18.8 675.8 22.8333 677.433 28.3 678.3C36.8333 679.567 43.1 681.9 47.1 685.3C51.1 688.633 53.1 693.233 53.1 699.1C53.1 704.767 51.0667 709.233 47 712.5C42.9333 715.7 37.2333 717.3 29.9 717.3ZM100.591 717.3C99.9247 717.3 99.3247 717.067 98.7914 716.6C98.3247 716.133 98.0914 715.567 98.0914 714.9V647.1C98.0914 646.367 98.3247 645.767 98.7914 645.3C99.3247 644.767 99.9247 644.5 100.591 644.5C101.325 644.5 101.925 644.767 102.391 645.3C102.858 645.767 103.091 646.367 103.091 647.1V714.9C103.091 715.567 102.858 716.133 102.391 716.6C101.925 717.067 101.325 717.3 100.591 717.3ZM174.017 717.3C169.017 717.3 164.651 716.267 160.917 714.2C157.251 712.133 154.384 709.233 152.317 705.5C150.251 701.767 149.217 697.433 149.217 692.5V669.3C149.217 664.3 150.284 659.967 152.417 656.3C154.551 652.567 157.517 649.667 161.317 647.6C165.184 645.533 169.684 644.5 174.817 644.5C178.351 644.5 181.651 645.067 184.717 646.2C187.851 647.267 190.551 648.767 192.817 650.7C195.151 652.633 196.851 654.9 197.917 657.5C198.251 658.167 198.251 658.833 197.917 659.5C197.584 660.1 197.084 660.5 196.417 660.7C194.951 661.367 193.884 660.933 193.217 659.4C191.951 656.467 189.617 654.1 186.217 652.3C182.884 650.433 179.084 649.5 174.817 649.5C170.684 649.5 167.051 650.333 163.917 652C160.851 653.6 158.451 655.9 156.717 658.9C155.051 661.833 154.217 665.3 154.217 669.3V692.5C154.217 696.433 155.017 699.9 156.617 702.9C158.284 705.9 160.584 708.233 163.517 709.9C166.517 711.5 170.017 712.3 174.017 712.3C177.151 712.3 180.317 711.933 183.517 711.2C186.717 710.467 189.384 709.467 191.517 708.2V689.8H175.917C174.184 689.8 173.317 688.967 173.317 687.3C173.317 685.633 174.184 684.8 175.917 684.8H194.117C195.717 684.8 196.517 685.633 196.517 687.3V709.6C196.517 710.533 196.151 711.267 195.417 711.8C192.884 713.467 189.651 714.8 185.717 715.8C181.784 716.8 177.884 717.3 174.017 717.3ZM243.75 717.3C243.083 717.3 242.483 717.067 241.95 716.6C241.483 716.133 241.25 715.567 241.25 714.9V647C241.25 645.733 241.85 644.933 243.05 644.6C244.25 644.267 245.217 644.633 245.95 645.7C252.15 655.567 257.45 664 261.85 671C266.317 678 269.983 683.8 272.85 688.4C275.783 693 278.083 696.633 279.75 699.3C281.417 701.9 282.583 703.733 283.25 704.8C283.917 705.867 284.25 706.4 284.25 706.4V647C284.25 646.333 284.517 645.767 285.05 645.3C285.583 644.767 286.183 644.5 286.85 644.5C287.517 644.5 288.083 644.767 288.55 645.3C289.017 645.767 289.25 646.333 289.25 647V714.9C289.25 716.1 288.683 716.867 287.55 717.2C286.35 717.533 285.383 717.2 284.65 716.2C278.45 706.333 273.15 697.9 268.75 690.9C264.35 683.9 260.683 678.1 257.75 673.5C254.817 668.9 252.517 665.3 250.85 662.7C249.183 660.033 247.983 658.167 247.25 657.1C246.583 656.033 246.25 655.5 246.25 655.5V714.9C246.25 715.567 246.017 716.133 245.55 716.6C245.083 717.067 244.483 717.3 243.75 717.3ZM345.036 717.4C344.369 717.4 343.803 717.167 343.336 716.7C342.936 716.3 342.736 715.767 342.736 715.1V680.2H331.236C330.569 680.2 330.003 679.967 329.536 679.5C329.069 678.967 328.836 678.367 328.836 677.7C328.836 677.033 329.069 676.5 329.536 676.1C330.003 675.633 330.569 675.4 331.236 675.4H345.036C345.769 675.4 346.369 675.633 346.836 676.1C347.303 676.5 347.536 677.033 347.536 677.7V715.1C347.536 715.767 347.303 716.3 346.836 716.7C346.369 717.167 345.769 717.4 345.036 717.4ZM343.836 657.3C342.903 657.3 342.136 657.033 341.536 656.5C340.936 655.967 340.636 655.367 340.636 654.7V648.5C340.636 647.833 340.936 647.233 341.536 646.7C342.136 646.1 342.903 645.8 343.836 645.8C344.769 645.8 345.503 646.1 346.036 646.7C346.636 647.233 346.936 647.833 346.936 648.5V654.7C346.936 655.367 346.636 655.967 346.036 656.5C345.503 657.033 344.769 657.3 343.836 657.3ZM399.059 717.4C398.392 717.4 397.825 717.167 397.359 716.7C396.892 716.3 396.659 715.767 396.659 715.1V680.2H389.459C388.792 680.2 388.225 679.967 387.759 679.5C387.292 678.967 387.059 678.4 387.059 677.8C387.059 677.133 387.292 676.567 387.759 676.1C388.225 675.633 388.792 675.4 389.459 675.4H396.659V660.7C396.659 650.9 401.625 646 411.559 646H417.459C418.125 646 418.659 646.233 419.059 646.7C419.525 647.167 419.759 647.733 419.759 648.4C419.759 649.067 419.525 649.633 419.059 650.1C418.659 650.567 418.125 650.8 417.459 650.8H411.559C408.025 650.8 405.425 651.6 403.759 653.2C402.159 654.733 401.359 657.233 401.359 660.7V675.4H417.559C418.225 675.4 418.792 675.633 419.259 676.1C419.725 676.567 419.959 677.133 419.959 677.8C419.959 678.4 419.725 678.967 419.259 679.5C418.792 679.967 418.225 680.2 417.559 680.2H401.359V715.1C401.359 715.767 401.125 716.3 400.659 716.7C400.259 717.167 399.725 717.4 399.059 717.4ZM465.473 738.2C464.806 737.933 464.339 737.5 464.073 736.9C463.806 736.3 463.806 735.7 464.073 735.1L471.473 716.3L455.773 677.2C455.506 676.6 455.506 676 455.773 675.4C456.039 674.8 456.473 674.367 457.073 674.1C457.673 673.9 458.273 673.933 458.873 674.2C459.473 674.4 459.906 674.833 460.173 675.5L474.073 709.9L487.673 675.5C487.939 674.833 488.339 674.4 488.873 674.2C489.473 673.933 490.106 673.9 490.773 674.1C491.373 674.367 491.806 674.8 492.073 675.4C492.339 676 492.339 676.6 492.073 677.2L468.473 736.9C468.206 737.5 467.773 737.9 467.173 738.1C466.639 738.367 466.073 738.4 465.473 738.2Z" fill="white"/>
<path d="M16.3 714.8L14.4807 719.457L14.4807 719.457L16.3 714.8ZM5.7 707.8L9.35528 704.388L9.15826 704.177L8.93824 703.99L5.7 707.8ZM5.8 704.3L9.05396 708.096L9.08815 708.067L9.12182 708.037L5.8 704.3ZM9.2 704.4L5.55899 707.827L5.56766 707.836L9.2 704.4ZM43.1 688.7L40.0248 692.643L40.0248 692.643L43.1 688.7ZM27.5 683.2L26.6858 688.133L26.7197 688.139L26.7537 688.144L27.5 683.2ZM12.3 676.7L8.8011 680.272L8.8011 680.272L12.3 676.7ZM13.1 649.5L16.3594 653.292L16.3784 653.275L16.3972 653.259L13.1 649.5ZM39.7 646.5L41.3817 641.791L41.3817 641.791L39.7 646.5ZM50.1 652L53.3207 648.175L53.187 648.063L53.0459 647.96L50.1 652ZM50.5 655.5L46.5756 652.402L46.5372 652.45L46.5 652.5L50.5 655.5ZM47.1 656L50.1982 652.076L50.1572 652.043L50.1155 652.012L47.1 656ZM38.1 651.2L36.4308 655.913L36.4459 655.919L36.4611 655.924L38.1 651.2ZM16.7 653.2L19.9097 657.034L19.918 657.027L16.7 653.2ZM16.2 673.4L12.7119 676.982L12.7596 677.029L12.8086 677.074L16.2 673.4ZM28.3 678.3L27.5171 683.238L27.5415 683.242L27.5659 683.246L28.3 678.3ZM47.1 685.3L43.8618 689.11L43.8803 689.125L43.8991 689.141L47.1 685.3ZM47 712.5L50.092 716.429L50.1117 716.414L50.1313 716.398L47 712.5ZM29.9 712.3C25.6922 712.3 21.7786 711.572 18.1193 710.143L14.4807 719.457C19.3547 721.361 24.5078 722.3 29.9 722.3V712.3ZM18.1193 710.143C14.4684 708.717 11.5876 706.78 9.35528 704.388L2.04472 711.212C5.41241 714.82 9.59828 717.55 14.4807 719.457L18.1193 710.143ZM8.93824 703.99C8.83601 703.903 9.76776 704.65 9.72296 706.218C9.68106 707.684 8.81477 708.301 9.05396 708.096L2.54604 700.504C1.38523 701.499 -0.197722 703.299 -0.27296 705.932C-0.351094 708.667 1.23066 710.563 2.46176 711.61L8.93824 703.99ZM9.12182 708.037C9.12154 708.037 9.11391 708.044 9.09869 708.056C9.08348 708.068 9.05969 708.086 9.02713 708.107C8.9627 708.15 8.85789 708.213 8.71213 708.278C8.40696 708.413 7.95504 708.539 7.403 708.523C6.21048 708.488 5.58882 707.859 5.559 707.827L12.841 700.973C11.7445 699.808 10.0229 698.596 7.697 698.527C5.40847 698.46 3.63412 699.535 2.47818 700.563L9.12182 708.037ZM5.56766 707.836C8.49145 710.927 12.1578 713.245 16.4165 714.871L19.9835 705.529C16.9089 704.355 14.5752 702.806 12.8323 700.964L5.56766 707.836ZM16.4165 714.871C20.6825 716.5 25.1898 717.3 29.9 717.3V707.3C26.3435 707.3 23.0509 706.7 19.9835 705.529L16.4165 714.871ZM29.9 717.3C36.2369 717.3 41.884 716.021 46.2459 712.84L40.3541 704.76C38.316 706.246 35.0298 707.3 29.9 707.3V717.3ZM46.2459 712.84C50.8016 709.518 53.1 704.749 53.1 699.1H43.1C43.1 701.718 42.1984 703.415 40.3541 704.76L46.2459 712.84ZM53.1 699.1C53.1 693.271 50.7583 688.332 46.1752 684.757L40.0248 692.643C42.1084 694.268 43.1 696.262 43.1 699.1H53.1ZM46.1752 684.757C41.8465 681.381 35.6464 679.373 28.2463 678.256L26.7537 688.144C33.4869 689.16 37.6868 690.819 40.0248 692.643L46.1752 684.757ZM28.3142 678.267C21.9649 677.219 18.0399 675.323 15.7989 673.128L8.8011 680.272C13.0935 684.477 19.3017 686.915 26.6858 688.133L28.3142 678.267ZM15.7989 673.128C13.7227 671.094 12.4 668.05 12.4 663.3H2.4C2.4 670.016 4.34393 675.906 8.8011 680.272L15.7989 673.128ZM12.4 663.3C12.4 658.528 13.8703 655.431 16.3594 653.292L9.84057 645.708C4.72966 650.102 2.4 656.205 2.4 663.3H12.4ZM16.3972 653.259C19.0189 650.959 22.9715 649.5 28.9 649.5V639.5C21.3618 639.5 14.7811 641.374 9.80281 645.741L16.3972 653.259ZM28.9 649.5C31.7177 649.5 34.7483 650.041 38.0183 651.209L41.3817 641.791C37.185 640.292 33.0156 639.5 28.9 639.5V649.5ZM38.0183 651.209C41.3008 652.381 44.3417 653.989 47.1541 656.04L53.0459 647.96C49.4583 645.344 45.5658 643.286 41.3817 641.791L38.0183 651.209ZM46.8793 655.825C46.9379 655.874 46.311 655.369 46.1823 654.243C46.0502 653.086 46.5701 652.409 46.5756 652.402L54.4244 658.598C55.4299 657.325 56.3832 655.431 56.1177 653.107C55.8556 650.815 54.5288 649.193 53.3207 648.175L46.8793 655.825ZM46.5 652.5C46.4317 652.591 46.9417 651.859 48.1725 651.678C48.7685 651.591 49.2894 651.677 49.6651 651.808C50.0129 651.929 50.1897 652.069 50.1982 652.076L44.0018 659.924C45.2641 660.921 47.2193 661.926 49.6275 661.572C51.9916 661.224 53.5683 659.742 54.5 658.5L46.5 652.5ZM50.1155 652.012C46.9608 649.626 43.4955 647.78 39.7389 646.476L36.4611 655.924C39.2378 656.887 41.7725 658.24 44.0845 659.988L50.1155 652.012ZM39.7692 646.487C36.116 645.193 32.4837 644.5 28.9 644.5V654.5C31.183 654.5 33.684 654.94 36.4308 655.913L39.7692 646.487ZM28.9 644.5C22.9433 644.5 17.5931 645.916 13.482 649.373L19.918 657.027C21.6736 655.551 24.4567 654.5 28.9 654.5V644.5ZM13.4903 649.366C9.3021 652.873 7.4 657.749 7.4 663.3H17.4C17.4 660.184 18.3646 658.327 19.9097 657.034L13.4903 649.366ZM7.4 663.3C7.4 668.617 9.01672 673.384 12.7119 676.982L19.6881 669.818C18.3166 668.482 17.4 666.517 17.4 663.3H7.4ZM12.8086 677.074C16.4372 680.423 21.583 682.298 27.5171 683.238L29.0829 673.362C24.0837 672.569 21.1628 671.177 19.5914 669.726L12.8086 677.074ZM27.5659 683.246C35.7088 684.455 40.8961 686.589 43.8618 689.11L50.3382 681.49C45.3039 677.211 37.9578 674.679 29.0341 673.354L27.5659 683.246ZM43.8991 689.141C46.606 691.397 48.1 694.506 48.1 699.1H58.1C58.1 691.961 55.594 685.87 50.3009 681.459L43.8991 689.141ZM48.1 699.1C48.1 703.401 46.642 706.374 43.8687 708.602L50.1313 716.398C55.4914 712.092 58.1 706.132 58.1 699.1H48.1ZM43.9081 708.571C41.025 710.839 36.5689 712.3 29.9 712.3V722.3C37.8978 722.3 44.8417 720.561 50.092 716.429L43.9081 708.571ZM98.7914 716.6L95.2559 720.136L95.3736 720.253L95.4989 720.363L98.7914 716.6ZM98.7914 645.3L102.327 648.836L102.327 648.836L98.7914 645.3ZM102.391 645.3L98.6285 648.593L98.7382 648.718L98.8559 648.836L102.391 645.3ZM102.391 716.6L98.8559 713.064L102.391 716.6ZM100.591 712.3C100.856 712.3 101.155 712.349 101.454 712.465C101.747 712.579 101.957 712.726 102.084 712.837L95.4989 720.363C96.8812 721.572 98.6331 722.3 100.591 722.3V712.3ZM102.327 713.064C102.524 713.262 102.736 713.548 102.89 713.921C103.043 714.293 103.091 714.638 103.091 714.9H93.0914C93.0914 716.878 93.8409 718.721 95.2559 720.136L102.327 713.064ZM103.091 714.9V647.1H93.0914V714.9H103.091ZM103.091 647.1C103.091 647.268 103.063 647.56 102.926 647.912C102.785 648.275 102.571 648.591 102.327 648.836L95.2559 641.764C93.7432 643.277 93.0914 645.202 93.0914 647.1H103.091ZM102.327 648.836C102.223 648.939 102.01 649.119 101.672 649.269C101.323 649.424 100.947 649.5 100.591 649.5V639.5C98.4202 639.5 96.5926 640.428 95.2559 641.764L102.327 648.836ZM100.591 649.5C100.341 649.5 99.971 649.451 99.5607 649.269C99.1461 649.085 98.8346 648.828 98.6285 648.593L106.154 642.007C104.701 640.347 102.709 639.5 100.591 639.5V649.5ZM98.8559 648.836C98.6116 648.591 98.3974 648.275 98.2564 647.912C98.1193 647.56 98.0914 647.268 98.0914 647.1H108.091C108.091 645.202 107.44 643.277 105.927 641.764L98.8559 648.836ZM98.0914 647.1V714.9H108.091V647.1H98.0914ZM98.0914 714.9C98.0914 714.638 98.1399 714.293 98.293 713.921C98.4465 713.548 98.6587 713.262 98.8559 713.064L105.927 720.136C107.342 718.721 108.091 716.878 108.091 714.9H98.0914ZM98.8559 713.064C99.1001 712.82 99.4165 712.606 99.7792 712.465C100.132 712.328 100.424 712.3 100.591 712.3V722.3C102.489 722.3 104.414 721.648 105.927 720.136L98.8559 713.064ZM160.917 714.2L158.462 718.556L158.479 718.565L158.496 718.574L160.917 714.2ZM152.317 705.5L147.943 707.922L147.943 707.922L152.317 705.5ZM152.417 656.3L156.739 658.814L156.749 658.798L156.758 658.781L152.417 656.3ZM161.317 647.6L158.96 643.19L158.944 643.199L158.928 643.208L161.317 647.6ZM184.717 646.2L182.984 650.89L183.045 650.912L183.106 650.933L184.717 646.2ZM192.817 650.7L189.572 654.504L189.6 654.527L189.627 654.55L192.817 650.7ZM197.917 657.5L193.291 659.398L193.362 659.57L193.445 659.736L197.917 657.5ZM197.917 659.5L202.288 661.928L202.341 661.833L202.389 661.736L197.917 659.5ZM196.417 660.7L194.98 655.911L194.656 656.008L194.348 656.148L196.417 660.7ZM193.217 659.4L188.627 661.382L188.632 661.394L193.217 659.4ZM186.217 652.3L183.774 656.663L183.826 656.691L183.878 656.719L186.217 652.3ZM163.917 652L166.23 656.433L166.248 656.424L166.265 656.414L163.917 652ZM156.717 658.9L152.388 656.399L152.379 656.414L152.37 656.43L156.717 658.9ZM156.617 702.9L152.205 705.253L152.226 705.291L152.246 705.328L156.617 702.9ZM163.517 709.9L161.047 714.247L161.105 714.28L161.164 714.312L163.517 709.9ZM183.517 711.2L182.4 706.326L182.4 706.326L183.517 711.2ZM191.517 708.2L194.07 712.499L196.517 711.046V708.2H191.517ZM191.517 689.8H196.517V684.8H191.517V689.8ZM195.417 711.8L198.165 715.977L198.263 715.913L198.358 715.844L195.417 711.8ZM185.717 715.8L186.949 720.646L186.949 720.646L185.717 715.8ZM174.017 712.3C169.718 712.3 166.213 711.417 163.339 709.826L158.496 718.574C163.088 721.117 168.316 722.3 174.017 722.3V712.3ZM163.372 709.844C160.524 708.239 158.316 706.014 156.692 703.078L147.943 707.922C150.451 712.453 153.977 716.028 158.462 718.556L163.372 709.844ZM156.692 703.078C155.095 700.195 154.217 696.72 154.217 692.5H144.217C144.217 698.147 145.406 703.339 147.943 707.922L156.692 703.078ZM154.217 692.5V669.3H144.217V692.5H154.217ZM154.217 669.3C154.217 665.024 155.123 661.591 156.739 658.814L148.095 653.786C145.444 658.342 144.217 663.576 144.217 669.3H154.217ZM156.758 658.781C158.428 655.859 160.717 653.618 163.706 651.992L158.928 643.208C154.318 645.715 150.673 649.275 148.076 653.819L156.758 658.781ZM163.674 652.01C166.701 650.392 170.365 649.5 174.817 649.5V639.5C169.002 639.5 163.667 640.675 158.96 643.19L163.674 652.01ZM174.817 649.5C177.807 649.5 180.515 649.978 182.984 650.89L186.45 641.51C182.786 640.156 178.894 639.5 174.817 639.5V649.5ZM183.106 650.933C185.707 651.819 187.837 653.024 189.572 654.504L196.062 646.896C193.264 644.509 189.994 642.715 186.329 641.467L183.106 650.933ZM189.627 654.55C191.38 656.002 192.56 657.615 193.291 659.398L202.543 655.602C201.141 652.185 198.921 649.264 196.007 646.85L189.627 654.55ZM193.445 659.736C193.306 659.458 193.167 659.03 193.167 658.5C193.167 657.97 193.306 657.542 193.445 657.264L202.389 661.736C203.426 659.662 203.426 657.338 202.389 655.264L193.445 659.736ZM193.546 657.072C193.673 656.845 193.875 656.58 194.169 656.346C194.461 656.112 194.754 655.979 194.98 655.911L197.854 665.489C199.749 664.921 201.312 663.685 202.288 661.928L193.546 657.072ZM194.348 656.148C194.354 656.146 195.22 655.764 196.399 656.243C197.532 656.703 197.85 657.515 197.803 657.406L188.632 661.394C189.251 662.818 190.436 664.614 192.635 665.507C194.881 666.42 197.014 665.921 198.486 665.252L194.348 656.148ZM197.808 657.418C196.003 653.238 192.75 650.101 188.557 647.881L183.878 656.719C186.485 658.099 187.898 659.695 188.627 661.382L197.808 657.418ZM188.66 647.937C184.496 645.606 179.837 644.5 174.817 644.5V654.5C178.33 654.5 181.271 655.261 183.774 656.663L188.66 647.937ZM174.817 644.5C170 644.5 165.536 645.476 161.569 647.586L166.265 656.414C168.565 655.191 171.367 654.5 174.817 654.5V644.5ZM161.604 647.567C157.694 649.607 154.595 652.578 152.388 656.399L161.047 661.401C162.306 659.222 164.007 657.593 166.23 656.433L161.604 647.567ZM152.37 656.43C150.202 660.245 149.217 664.595 149.217 669.3H159.217C159.217 666.005 159.899 663.422 161.064 661.37L152.37 656.43ZM149.217 669.3V692.5H159.217V669.3H149.217ZM149.217 692.5C149.217 697.125 150.163 701.423 152.205 705.253L161.029 700.547C159.872 698.377 159.217 695.742 159.217 692.5H149.217ZM152.246 705.328C154.351 709.116 157.302 712.119 161.047 714.247L165.987 705.553C163.866 704.347 162.217 702.684 160.988 700.472L152.246 705.328ZM161.164 714.312C165.006 716.361 169.341 717.3 174.017 717.3V707.3C170.693 707.3 168.028 706.639 165.87 705.488L161.164 714.312ZM174.017 717.3C177.544 717.3 181.085 716.887 184.634 716.074L182.4 706.326C179.549 706.98 176.757 707.3 174.017 707.3V717.3ZM184.634 716.074C188.186 715.26 191.373 714.1 194.07 712.499L188.964 703.901C187.395 704.833 185.248 705.674 182.4 706.326L184.634 716.074ZM196.517 708.2V689.8H186.517V708.2H196.517ZM191.517 684.8H175.917V694.8H191.517V684.8ZM175.917 684.8C175.773 684.8 176.592 684.763 177.433 685.571C177.84 685.963 178.08 686.399 178.204 686.756C178.319 687.087 178.317 687.298 178.317 687.3H168.317C168.317 688.955 168.758 691.102 170.502 692.779C172.209 694.421 174.328 694.8 175.917 694.8V684.8ZM178.317 687.3C178.317 687.302 178.319 687.513 178.204 687.844C178.08 688.201 177.84 688.637 177.433 689.029C176.592 689.837 175.773 689.8 175.917 689.8V679.8C174.328 679.8 172.209 680.179 170.502 681.821C168.758 683.498 168.317 685.645 168.317 687.3H178.317ZM175.917 689.8H194.117V679.8H175.917V689.8ZM194.117 689.8C194.093 689.8 193.17 689.783 192.31 688.888C191.487 688.03 191.517 687.187 191.517 687.3H201.517C201.517 685.746 201.147 683.653 199.524 681.962C197.865 680.234 195.741 679.8 194.117 679.8V689.8ZM191.517 687.3V709.6H201.517V687.3H191.517ZM191.517 709.6C191.517 709.398 191.561 709.032 191.77 708.614C191.982 708.191 192.265 707.91 192.476 707.756L198.358 715.844C200.429 714.337 201.517 712.078 201.517 709.6H191.517ZM192.669 707.623C190.728 708.9 188.05 710.048 184.485 710.954L186.949 720.646C191.251 719.552 195.04 718.033 198.165 715.977L192.669 707.623ZM184.485 710.954C180.935 711.857 177.448 712.3 174.017 712.3V722.3C178.319 722.3 182.633 721.743 186.949 720.646L184.485 710.954ZM241.95 716.6L238.414 720.136L238.532 720.253L238.657 720.363L241.95 716.6ZM243.05 644.6L241.712 639.782L241.712 639.782L243.05 644.6ZM245.95 645.7L250.184 643.04L250.129 642.952L250.07 642.867L245.95 645.7ZM261.85 671L257.617 673.661L257.626 673.675L257.635 673.69L261.85 671ZM272.85 688.4L268.607 691.044L268.62 691.066L268.634 691.088L272.85 688.4ZM279.75 699.3L275.51 701.95L275.525 701.974L275.541 701.998L279.75 699.3ZM283.25 704.8L287.49 702.15L287.49 702.15L283.25 704.8ZM284.25 706.4L280.01 709.05L289.25 723.834V706.4H284.25ZM285.05 645.3L288.343 649.063L288.468 648.953L288.586 648.836L285.05 645.3ZM288.55 645.3L284.787 648.593L284.897 648.718L285.014 648.836L288.55 645.3ZM287.55 717.2L288.888 722.018L288.925 722.007L288.961 721.997L287.55 717.2ZM284.65 716.2L280.416 718.86L280.512 719.012L280.618 719.157L284.65 716.2ZM268.75 690.9L272.983 688.239L272.983 688.239L268.75 690.9ZM257.75 673.5L253.534 676.188L257.75 673.5ZM250.85 662.7L246.61 665.35L246.625 665.374L246.641 665.398L250.85 662.7ZM247.25 657.1L243.01 659.75L243.068 659.843L243.13 659.933L247.25 657.1ZM246.25 655.5L250.49 652.85L241.25 638.066V655.5H246.25ZM245.55 716.6L249.086 720.136L249.086 720.136L245.55 716.6ZM243.75 712.3C244.014 712.3 244.314 712.349 244.612 712.465C244.906 712.579 245.116 712.726 245.243 712.837L238.657 720.363C240.04 721.572 241.792 722.3 243.75 722.3V712.3ZM245.486 713.064C245.683 713.262 245.895 713.548 246.048 713.921C246.201 714.293 246.25 714.638 246.25 714.9H236.25C236.25 716.878 236.999 718.721 238.414 720.136L245.486 713.064ZM246.25 714.9V647H236.25V714.9H246.25ZM246.25 647C246.25 647.157 246.205 647.777 245.7 648.45C245.189 649.131 244.586 649.363 244.388 649.418L241.712 639.782C240.314 640.171 238.811 640.969 237.7 642.45C236.595 643.923 236.25 645.576 236.25 647H246.25ZM244.388 649.418C244.177 649.476 243.604 649.566 242.902 649.3C242.218 649.041 241.894 648.625 241.83 648.533L250.07 642.867C249.273 641.708 248.099 640.576 246.448 639.95C244.779 639.317 243.123 639.391 241.712 639.782L244.388 649.418ZM241.716 648.36C247.917 658.227 253.217 666.661 257.617 673.661L266.083 668.339C261.683 661.339 256.383 652.906 250.184 643.04L241.716 648.36ZM257.635 673.69C262.097 680.682 265.753 686.465 268.607 691.044L277.093 685.756C274.214 681.135 270.537 675.318 266.065 668.31L257.635 673.69ZM268.634 691.088C271.564 695.683 273.855 699.302 275.51 701.95L283.99 696.65C282.312 693.965 280.002 690.317 277.066 685.712L268.634 691.088ZM275.541 701.998C277.207 704.599 278.36 706.41 279.01 707.45L287.49 702.15C286.806 701.056 285.626 699.201 283.959 696.602L275.541 701.998ZM279.01 707.45C279.25 707.834 279.687 708.533 279.76 708.65C279.818 708.743 279.931 708.924 279.948 708.95C279.949 708.953 279.961 708.972 279.962 708.973C279.963 708.974 279.968 708.983 279.969 708.984C279.97 708.986 279.974 708.992 279.975 708.994C279.983 709.007 279.978 708.999 279.986 709.011C279.987 709.013 279.989 709.017 279.99 709.018C279.994 709.025 279.991 709.019 279.994 709.025C279.998 709.031 280.005 709.041 280.006 709.044C280.007 709.045 280.009 709.048 280.009 709.048C280.009 709.048 280.009 709.049 280.009 709.049C280.009 709.049 280.009 709.049 280.009 709.049C280.009 709.049 280.01 709.049 280.01 709.049C280.01 709.049 280.01 709.049 280.01 709.049C280.01 709.049 280.01 709.05 280.01 709.05C280.01 709.05 280.01 709.05 280.01 709.05C280.01 709.05 280.01 709.05 280.01 709.05C280.01 709.05 280.01 709.05 280.01 709.05C280.01 709.05 280.01 709.05 280.01 709.05C280.01 709.05 280.01 709.05 284.25 706.4C288.49 703.75 288.49 703.75 288.49 703.75C288.49 703.75 288.49 703.75 288.49 703.75C288.49 703.75 288.49 703.75 288.49 703.75C288.49 703.75 288.49 703.75 288.49 703.75C288.49 703.75 288.49 703.75 288.49 703.75C288.49 703.75 288.49 703.75 288.49 703.75C288.49 703.75 288.49 703.75 288.49 703.75C288.489 703.749 288.49 703.75 288.489 703.749C288.489 703.749 288.489 703.749 288.489 703.749C288.489 703.749 288.489 703.749 288.489 703.749C288.489 703.749 288.489 703.749 288.489 703.749C288.489 703.749 288.489 703.749 288.489 703.748C288.489 703.748 288.489 703.748 288.488 703.748C288.487 703.746 288.489 703.749 288.488 703.746C288.487 703.746 288.488 703.747 288.487 703.746C288.487 703.746 288.487 703.746 288.487 703.746C288.487 703.745 288.487 703.745 288.487 703.745C288.487 703.745 288.487 703.745 288.487 703.745C288.487 703.745 288.487 703.745 288.487 703.745C288.486 703.743 288.487 703.745 288.486 703.744C288.486 703.744 288.482 703.737 288.481 703.736C288.479 703.732 288.478 703.73 288.474 703.725C288.456 703.696 288.476 703.727 288.455 703.694C288.444 703.677 288.441 703.671 288.427 703.65C288.425 703.646 288.397 703.602 288.392 703.594C288.39 703.59 288.375 703.566 288.372 703.561C288.342 703.514 288.38 703.573 288.349 703.525C288.334 703.5 288.266 703.392 288.24 703.35C288.159 703.221 288.257 703.377 288.174 703.244C288.159 703.22 288.171 703.239 288.156 703.215C288.155 703.214 288.152 703.209 288.151 703.208C288.148 703.203 288.15 703.206 288.147 703.201C288.136 703.183 288.148 703.203 288.137 703.186C288.134 703.181 288.103 703.131 288.099 703.125C288.097 703.122 288.022 703.001 288.017 702.994C287.964 702.908 287.984 702.94 287.927 702.85C287.699 702.485 287.76 702.582 287.49 702.15L279.01 707.45ZM289.25 706.4V647H279.25V706.4H289.25ZM289.25 647C289.25 647.354 289.174 647.779 288.974 648.204C288.778 648.621 288.526 648.902 288.343 649.063L281.757 641.537C280.217 642.885 279.25 644.792 279.25 647H289.25ZM288.586 648.836C288.482 648.939 288.268 649.119 287.931 649.269C287.581 649.424 287.205 649.5 286.85 649.5V639.5C284.679 639.5 282.851 640.428 281.514 641.764L288.586 648.836ZM286.85 649.5C286.496 649.5 286.071 649.424 285.646 649.224C285.229 649.028 284.948 648.776 284.787 648.593L292.313 642.007C290.965 640.467 289.058 639.5 286.85 639.5V649.5ZM285.014 648.836C284.817 648.638 284.605 648.352 284.452 647.979C284.299 647.607 284.25 647.262 284.25 647H294.25C294.25 645.022 293.501 643.179 292.086 641.764L285.014 648.836ZM284.25 647V714.9H294.25V647H284.25ZM284.25 714.9C284.25 714.71 284.303 714.081 284.804 713.403C285.311 712.718 285.915 712.469 286.139 712.403L288.961 721.997C290.318 721.598 291.773 720.799 292.846 719.347C293.913 717.903 294.25 716.29 294.25 714.9H284.25ZM286.212 712.382C286.372 712.338 286.889 712.244 287.555 712.473C288.223 712.703 288.577 713.1 288.682 713.243L280.618 719.157C281.456 720.3 282.661 721.363 284.295 721.927C285.927 722.49 287.528 722.395 288.888 722.018L286.212 712.382ZM288.884 713.54C282.683 703.673 277.383 695.239 272.983 688.239L264.517 693.561C268.917 700.561 274.217 708.994 280.416 718.86L288.884 713.54ZM272.983 688.239C268.58 681.234 264.907 675.424 261.966 670.812L253.534 676.188C256.46 680.776 260.12 686.566 264.517 693.561L272.983 688.239ZM261.966 670.812C259.032 666.21 256.729 662.607 255.059 660.002L246.641 665.398C248.304 667.993 250.602 671.59 253.534 676.188L261.966 670.812ZM255.09 660.05C253.424 657.384 252.172 655.434 251.37 654.267L243.13 659.933C243.795 660.9 244.943 662.683 246.61 665.35L255.09 660.05ZM251.49 654.45C251.081 653.796 250.982 653.637 250.74 653.25C250.583 652.998 250.668 653.135 250.552 652.95C250.536 652.924 250.511 652.884 250.506 652.875C250.503 652.87 250.494 652.857 250.494 652.856C250.491 652.852 250.493 652.854 250.491 652.852C250.49 652.851 250.491 652.851 250.49 652.85C250.49 652.85 250.49 652.85 250.49 652.85C250.49 652.85 250.49 652.85 250.49 652.85C250.49 652.85 250.49 652.85 250.49 652.85C250.49 652.85 250.49 652.85 250.49 652.85C250.49 652.85 250.49 652.85 250.49 652.85C250.49 652.85 250.49 652.85 250.49 652.85C250.49 652.85 250.49 652.85 246.25 655.5C242.01 658.15 242.01 658.15 242.01 658.15C242.01 658.15 242.01 658.15 242.01 658.15C242.01 658.15 242.01 658.15 242.01 658.15C242.01 658.15 242.01 658.15 242.01 658.15C242.01 658.15 242.01 658.15 242.01 658.15C242.011 658.151 242.01 658.15 242.011 658.151C242.011 658.151 242.011 658.151 242.011 658.152C242.011 658.152 242.012 658.153 242.012 658.154C242.014 658.156 242.012 658.153 242.014 658.156C242.019 658.165 242.013 658.155 242.019 658.164C242.025 658.174 242.019 658.164 242.026 658.175C242.088 658.275 241.98 658.102 242.045 658.206C242.084 658.269 242.031 658.183 242.073 658.25C242.156 658.384 242.057 658.225 242.151 658.375C242.363 658.715 242.037 658.194 242.26 658.55C242.481 658.903 242.31 658.63 242.573 659.05C242.767 659.361 242.425 658.814 242.62 659.127C242.675 659.213 242.591 659.079 242.645 659.166C242.667 659.202 242.648 659.17 242.67 659.206C242.681 659.223 242.763 659.354 242.776 659.375C242.872 659.529 242.79 659.398 242.889 659.556C243.109 659.908 242.788 659.394 243.01 659.75L251.49 654.45ZM241.25 655.5V714.9H251.25V655.5H241.25ZM241.25 714.9C241.25 714.638 241.299 714.293 241.452 713.921C241.605 713.548 241.817 713.262 242.014 713.064L249.086 720.136C250.501 718.721 251.25 716.878 251.25 714.9H241.25ZM242.014 713.064C242.259 712.82 242.575 712.606 242.938 712.465C243.29 712.328 243.582 712.3 243.75 712.3V722.3C245.648 722.3 247.573 721.648 249.086 720.136L242.014 713.064ZM343.336 716.7L339.8 720.236L339.8 720.236L343.336 716.7ZM342.736 680.2H347.736V675.2H342.736V680.2ZM329.536 679.5L325.773 682.793L325.883 682.918L326 683.036L329.536 679.5ZM329.536 676.1L332.79 679.896L332.936 679.771L333.071 679.636L329.536 676.1ZM346.836 676.1L343.3 679.636L343.436 679.771L343.582 679.896L346.836 676.1ZM346.836 716.7L343.582 712.904L343.436 713.029L343.3 713.164L346.836 716.7ZM341.536 656.5L338.214 660.237L338.214 660.237L341.536 656.5ZM341.536 646.7L344.858 650.437L344.968 650.339L345.071 650.236L341.536 646.7ZM346.036 646.7L342.299 650.022L342.494 650.242L342.714 650.437L346.036 646.7ZM346.036 656.5L342.714 652.763L342.604 652.861L342.5 652.964L346.036 656.5ZM345.036 712.4C345.298 712.4 345.643 712.449 346.015 712.602C346.387 712.755 346.674 712.967 346.871 713.164L339.8 720.236C341.215 721.651 343.058 722.4 345.036 722.4V712.4ZM346.871 713.164C347.18 713.473 347.419 713.848 347.568 714.244C347.711 714.626 347.736 714.934 347.736 715.1H337.736C337.736 716.838 338.297 718.732 339.8 720.236L346.871 713.164ZM347.736 715.1V680.2H337.736V715.1H347.736ZM342.736 675.2H331.236V685.2H342.736V675.2ZM331.236 675.2C331.498 675.2 331.843 675.249 332.215 675.402C332.587 675.555 332.874 675.767 333.071 675.964L326 683.036C327.415 684.451 329.258 685.2 331.236 685.2V675.2ZM333.299 676.207C333.41 676.334 333.557 676.544 333.671 676.838C333.787 677.136 333.836 677.436 333.836 677.7H323.836C323.836 679.658 324.564 681.41 325.773 682.793L333.299 676.207ZM333.836 677.7C333.836 677.957 333.789 678.353 333.592 678.804C333.39 679.265 333.095 679.634 332.79 679.896L326.282 672.304C324.605 673.741 323.836 675.714 323.836 677.7H333.836ZM333.071 679.636C332.874 679.833 332.587 680.045 332.215 680.198C331.843 680.351 331.498 680.4 331.236 680.4V670.4C329.258 670.4 327.415 671.149 326 672.564L333.071 679.636ZM331.236 680.4H345.036V670.4H331.236V680.4ZM345.036 680.4C344.868 680.4 344.576 680.372 344.224 680.235C343.861 680.094 343.545 679.88 343.3 679.636L350.371 672.564C348.859 671.052 346.934 670.4 345.036 670.4V680.4ZM343.582 679.896C343.276 679.634 342.982 679.265 342.78 678.804C342.583 678.353 342.536 677.957 342.536 677.7H352.536C352.536 675.714 351.767 673.741 350.09 672.304L343.582 679.896ZM342.536 677.7V715.1H352.536V677.7H342.536ZM342.536 715.1C342.536 714.843 342.583 714.447 342.78 713.996C342.982 713.535 343.276 713.166 343.582 712.904L350.09 720.496C351.767 719.059 352.536 717.086 352.536 715.1H342.536ZM343.3 713.164C343.545 712.92 343.861 712.706 344.224 712.565C344.576 712.428 344.868 712.4 345.036 712.4V722.4C346.934 722.4 348.859 721.748 350.371 720.236L343.3 713.164ZM343.836 652.3C343.846 652.3 343.986 652.302 344.204 652.378C344.432 652.457 344.662 652.589 344.858 652.763L338.214 660.237C339.876 661.714 341.89 662.3 343.836 662.3V652.3ZM344.858 652.763C344.942 652.838 345.149 653.045 345.333 653.414C345.528 653.804 345.636 654.252 345.636 654.7H335.636C335.636 657.085 336.784 658.966 338.214 660.237L344.858 652.763ZM345.636 654.7V648.5H335.636V654.7H345.636ZM345.636 648.5C345.636 648.948 345.528 649.396 345.333 649.786C345.149 650.155 344.942 650.362 344.858 650.437L338.214 642.963C336.784 644.234 335.636 646.115 335.636 648.5H345.636ZM345.071 650.236C344.899 650.408 344.662 650.572 344.383 650.681C344.113 650.787 343.91 650.8 343.836 650.8V640.8C341.722 640.8 339.636 641.529 338 643.164L345.071 650.236ZM343.836 650.8C343.767 650.8 343.524 650.788 343.193 650.653C342.844 650.51 342.532 650.284 342.299 650.022L349.773 643.378C348.133 641.533 345.942 640.8 343.836 640.8V650.8ZM342.714 650.437C342.63 650.362 342.423 650.155 342.239 649.786C342.044 649.396 341.936 648.948 341.936 648.5H351.936C351.936 646.115 350.788 644.234 349.358 642.963L342.714 650.437ZM341.936 648.5V654.7H351.936V648.5H341.936ZM341.936 654.7C341.936 654.252 342.044 653.804 342.239 653.414C342.423 653.045 342.63 652.838 342.714 652.763L349.358 660.237C350.788 658.966 351.936 657.085 351.936 654.7H341.936ZM342.5 652.964C342.768 652.696 343.082 652.509 343.377 652.401C343.654 652.3 343.831 652.3 343.836 652.3V662.3C345.762 662.3 347.888 661.719 349.571 660.036L342.5 652.964ZM397.359 716.7L400.894 713.164L400.758 713.029L400.613 712.904L397.359 716.7ZM396.659 680.2H401.659V675.2H396.659V680.2ZM387.759 679.5L383.996 682.793L384.105 682.918L384.223 683.036L387.759 679.5ZM387.759 676.1L384.223 672.564L384.223 672.564L387.759 676.1ZM396.659 675.4V680.4H401.659V675.4H396.659ZM419.059 646.7L415.262 649.954L415.387 650.1L415.523 650.236L419.059 646.7ZM419.059 650.1L415.523 646.564L415.387 646.7L415.262 646.846L419.059 650.1ZM403.759 653.2L407.218 656.81L407.221 656.807L403.759 653.2ZM401.359 675.4H396.359V680.4H401.359V675.4ZM419.259 679.5L422.794 683.036L422.912 682.918L423.021 682.793L419.259 679.5ZM401.359 680.2V675.2H396.359V680.2H401.359ZM400.659 716.7L397.405 712.904L397.113 713.154L396.862 713.446L400.659 716.7ZM399.059 712.4C399.321 712.4 399.666 712.449 400.037 712.602C400.41 712.755 400.697 712.967 400.894 713.164L393.823 720.236C395.238 721.651 397.081 722.4 399.059 722.4V712.4ZM400.613 712.904C400.918 713.166 401.213 713.535 401.414 713.996C401.612 714.447 401.659 714.843 401.659 715.1H391.659C391.659 717.086 392.428 719.059 394.105 720.496L400.613 712.904ZM401.659 715.1V680.2H391.659V715.1H401.659ZM396.659 675.2H389.459V685.2H396.659V675.2ZM389.459 675.2C389.721 675.2 390.066 675.249 390.437 675.402C390.81 675.555 391.097 675.767 391.294 675.964L384.223 683.036C385.638 684.451 387.481 685.2 389.459 685.2V675.2ZM391.521 676.207C391.594 676.29 391.735 676.475 391.857 676.771C391.984 677.079 392.059 677.433 392.059 677.8H382.059C382.059 679.824 382.884 681.522 383.996 682.793L391.521 676.207ZM392.059 677.8C392.059 678.062 392.01 678.407 391.857 678.779C391.703 679.152 391.491 679.438 391.294 679.636L384.223 672.564C382.808 673.979 382.059 675.822 382.059 677.8H392.059ZM391.294 679.636C391.097 679.833 390.81 680.045 390.437 680.198C390.066 680.351 389.721 680.4 389.459 680.4V670.4C387.481 670.4 385.638 671.149 384.223 672.564L391.294 679.636ZM389.459 680.4H396.659V670.4H389.459V680.4ZM401.659 675.4V660.7H391.659V675.4H401.659ZM401.659 660.7C401.659 656.588 402.695 654.418 403.895 653.234C405.108 652.038 407.346 651 411.559 651V641C405.838 641 400.626 642.412 396.872 646.116C393.106 649.831 391.659 655.012 391.659 660.7H401.659ZM411.559 651H417.459V641H411.559V651ZM417.459 651C417.202 651 416.805 650.953 416.354 650.756C415.893 650.554 415.524 650.259 415.262 649.954L422.855 643.446C421.418 641.769 419.445 641 417.459 641V651ZM415.523 650.236C415.326 650.038 415.114 649.752 414.96 649.379C414.807 649.007 414.759 648.662 414.759 648.4H424.759C424.759 646.422 424.009 644.579 422.594 643.164L415.523 650.236ZM414.759 648.4C414.759 648.138 414.807 647.793 414.96 647.421C415.114 647.048 415.326 646.762 415.523 646.564L422.594 653.636C424.009 652.221 424.759 650.378 424.759 648.4H414.759ZM415.262 646.846C415.524 646.541 415.893 646.246 416.354 646.044C416.805 645.847 417.202 645.8 417.459 645.8V655.8C419.445 655.8 421.418 655.031 422.855 653.354L415.262 646.846ZM417.459 645.8H411.559V655.8H417.459V645.8ZM411.559 645.8C407.4 645.8 403.283 646.725 400.296 649.593L407.221 656.807C407.567 656.475 408.65 655.8 411.559 655.8V645.8ZM400.299 649.59C397.279 652.484 396.359 656.622 396.359 660.7H406.359C406.359 657.844 407.038 656.983 407.218 656.81L400.299 649.59ZM396.359 660.7V675.4H406.359V660.7H396.359ZM401.359 680.4H417.559V670.4H401.359V680.4ZM417.559 680.4C417.297 680.4 416.952 680.351 416.58 680.198C416.207 680.045 415.92 679.833 415.723 679.636L422.794 672.564C421.379 671.149 419.536 670.4 417.559 670.4V680.4ZM415.723 679.636C415.526 679.438 415.314 679.152 415.16 678.779C415.007 678.407 414.959 678.062 414.959 677.8H424.959C424.959 675.822 424.209 673.979 422.794 672.564L415.723 679.636ZM414.959 677.8C414.959 677.433 415.034 677.079 415.16 676.771C415.282 676.475 415.423 676.29 415.496 676.207L423.021 682.793C424.133 681.522 424.959 679.824 424.959 677.8H414.959ZM415.723 675.964C415.92 675.767 416.207 675.555 416.58 675.402C416.952 675.249 417.297 675.2 417.559 675.2V685.2C419.536 685.2 421.379 684.451 422.794 683.036L415.723 675.964ZM417.559 675.2H401.359V685.2H417.559V675.2ZM396.359 680.2V715.1H406.359V680.2H396.359ZM396.359 715.1C396.359 714.843 396.406 714.447 396.603 713.996C396.805 713.535 397.099 713.166 397.405 712.904L403.913 720.496C405.589 719.059 406.359 717.086 406.359 715.1H396.359ZM396.862 713.446C397.124 713.141 397.493 712.846 397.955 712.644C398.405 712.447 398.802 712.4 399.059 712.4V722.4C401.045 722.4 403.018 721.631 404.455 719.954L396.862 713.446ZM465.473 738.2L463.616 742.842L463.752 742.897L463.892 742.943L465.473 738.2ZM464.073 736.9L468.642 734.869L468.642 734.869L464.073 736.9ZM464.073 735.1L468.642 737.131L468.686 737.032L468.725 736.931L464.073 735.1ZM471.473 716.3L476.125 718.131L476.853 716.282L476.113 714.437L471.473 716.3ZM455.773 677.2L460.413 675.337L460.379 675.252L460.342 675.169L455.773 677.2ZM457.073 674.1L455.492 669.357L455.263 669.433L455.042 669.531L457.073 674.1ZM458.873 674.2L456.842 678.769L457.063 678.867L457.292 678.943L458.873 674.2ZM460.173 675.5L455.53 677.357L455.534 677.365L455.537 677.373L460.173 675.5ZM474.073 709.9L469.437 711.773L474.123 723.371L478.722 711.738L474.073 709.9ZM487.673 675.5L483.03 673.643L483.027 673.652L483.023 673.662L487.673 675.5ZM488.873 674.2L490.628 678.882L490.767 678.829L490.903 678.769L488.873 674.2ZM490.773 674.1L492.803 669.531L492.513 669.402L492.209 669.311L490.773 674.1ZM492.073 677.2L487.504 675.169L487.461 675.265L487.423 675.362L492.073 677.2ZM468.473 736.9L473.042 738.931L473.084 738.835L473.123 738.738L468.473 736.9ZM467.173 738.1L465.592 733.357L465.254 733.469L464.937 733.628L467.173 738.1ZM467.33 733.558C467.495 733.624 467.754 733.759 468.025 734.011C468.302 734.269 468.509 734.571 468.642 734.869L459.504 738.931C460.351 740.838 461.863 742.141 463.616 742.842L467.33 733.558ZM468.642 734.869C468.765 735.148 468.873 735.537 468.873 736C468.873 736.463 468.765 736.852 468.642 737.131L459.504 733.069C458.662 734.962 458.662 737.038 459.504 738.931L468.642 734.869ZM468.725 736.931L476.125 718.131L466.82 714.469L459.42 733.269L468.725 736.931ZM476.113 714.437L460.413 675.337L451.133 679.063L466.833 718.163L476.113 714.437ZM460.342 675.169C460.465 675.448 460.573 675.837 460.573 676.3C460.573 676.763 460.465 677.152 460.342 677.431L451.204 673.369C450.362 675.262 450.362 677.338 451.204 679.231L460.342 675.169ZM460.342 677.431C460.244 677.651 460.081 677.913 459.833 678.161C459.586 678.408 459.324 678.571 459.103 678.669L455.042 669.531C453.311 670.3 451.973 671.638 451.204 673.369L460.342 677.431ZM458.654 678.843C458.387 678.932 458.058 678.987 457.695 678.967C457.336 678.947 457.045 678.859 456.842 678.769L460.903 669.631C459.211 668.879 457.324 668.746 455.492 669.357L458.654 678.843ZM457.292 678.943C456.88 678.806 456.462 678.561 456.112 678.211C455.775 677.873 455.606 677.546 455.53 677.357L464.815 673.643C464.085 671.818 462.647 670.188 460.454 669.457L457.292 678.943ZM455.537 677.373L469.437 711.773L478.709 708.027L464.809 673.627L455.537 677.373ZM478.722 711.738L492.322 677.338L483.023 673.662L469.423 708.062L478.722 711.738ZM492.315 677.357C492.27 677.47 492.139 677.749 491.847 678.066C491.536 678.403 491.119 678.697 490.628 678.882L487.117 669.518C484.94 670.335 483.674 672.034 483.03 673.643L492.315 677.357ZM490.903 678.769C490.665 678.875 490.376 678.952 490.06 678.968C489.75 678.984 489.5 678.938 489.336 678.889L492.209 669.311C490.472 668.79 488.603 668.848 486.842 669.631L490.903 678.769ZM488.742 678.669C488.522 678.571 488.26 678.408 488.012 678.161C487.765 677.913 487.602 677.651 487.504 677.431L496.642 673.369C495.872 671.638 494.535 670.3 492.803 669.531L488.742 678.669ZM487.504 677.431C487.38 677.152 487.273 676.763 487.273 676.3C487.273 675.837 487.38 675.448 487.504 675.169L496.642 679.231C497.483 677.338 497.483 675.262 496.642 673.369L487.504 677.431ZM487.423 675.362L463.823 735.062L473.123 738.738L496.723 679.038L487.423 675.362ZM463.904 734.869C464.015 734.618 464.219 734.288 464.556 733.976C464.897 733.661 465.269 733.464 465.592 733.357L468.754 742.843C470.743 742.18 472.229 740.759 473.042 738.931L463.904 734.869ZM464.937 733.628C465.244 733.474 465.628 733.359 466.054 733.334C466.474 733.309 466.819 733.378 467.054 733.457L463.892 742.943C465.665 743.535 467.612 743.471 469.409 742.572L464.937 733.628Z" fill="white" mask="url(#path-5-outside-1_1405_4)"/>
</svg>
